<svg xmlns="http://www.w3.org/2000/svg" viewBox="0 0 400 400" fill="none">
  <defs>
    <linearGradient id="logoGradient1" x1="0%" y1="0%" x2="100%" y2="100%">
      <stop offset="0%" stop-color="#9333ea" />
      <stop offset="50%" stop-color="#7c3aed" />
      <stop offset="100%" stop-color="#3b82f6" />
    </linearGradient>

    <linearGradient id="logoGradient2" x1="0%" y1="0%" x2="100%" y2="100%">
      <stop offset="0%" stop-color="#3b82f6" />
      <stop offset="50%" stop-color="#06b6d4" />
      <stop offset="100%" stop-color="#0891b2" />
    </linearGradient>

    <linearGradient id="logoGradient3" x1="0%" y1="0%" x2="100%" y2="100%">
      <stop offset="0%" stop-color="#7c3aed" />
      <stop offset="50%" stop-color="#9333ea" />
      <stop offset="100%" stop-color="#6d28d9" />
    </linearGradient>
  </defs>

  <g transform="translate(50, 50)">
    <!-- Top Purple Band -->
    <path
      d="M 50 50 Q 50 20 80 20 L 220 20 Q 250 20 250 50 L 250 80 Q 250 110 220 110 L 180 110 L 180 140 Q 180 170 150 170 L 120 170 Q 90 170 90 140 L 90 110 Q 90 80 120 80 L 150 80 L 150 50 Z"
      fill="url(#logoGradient1)"
    />

    <!-- Right Blue Band -->
    <path
      d="M 250 50 Q 280 50 280 80 L 280 220 Q 280 250 250 250 L 220 250 Q 190 250 190 220 L 190 180 L 160 180 Q 130 180 130 150 L 130 120 Q 130 90 160 90 L 190 90 Q 220 90 220 120 L 220 150 L 250 150 Z"
      fill="url(#logoGradient2)"
    />

    <!-- Bottom Purple Band -->
    <path
      d="M 220 250 Q 220 280 190 280 L 50 280 Q 20 280 20 250 L 20 220 Q 20 190 50 190 L 90 190 L 90 160 Q 90 130 120 130 L 150 130 Q 180 130 180 160 L 180 190 Q 180 220 150 220 L 120 220 L 120 250 Z"
      fill="url(#logoGradient3)"
    />

    <!-- Central Highlight -->
    <circle
      cx="150"
      cy="150"
      r="25"
      fill="rgba(255, 255, 255, 0.2)"
    />
  </g>
</svg>
